<svg xmlns="http://www.w3.org/2000/svg" width="8.139" height="16" viewBox="0 0 8.139 16"><g id="SvgjsSvg1000" transform="translate(-0.18 -0.55)"><path id="Path_1" data-name="Path 1" d="M4.3,16.55A4.146,4.146,0,0,1,.18,12.223H2.564A1.8,1.8,0,0,0,4.3,14.166a1.527,1.527,0,0,0,1.635-1.541c0-1.083-.339-1.45-2.455-3.241C1.461,7.675.436,5.986.436,4.362A3.572,3.572,0,0,1,4.248.55a3.776,3.776,0,0,1,3.71,3.914H5.575A1.4,1.4,0,0,0,4.248,2.934c-1.259,0-1.428.721-1.428,1.428,0,.851.8,2.019,2.2,3.2,2.128,1.8,3.3,2.792,3.3,5.061A3.889,3.889,0,0,1,4.3,16.55" transform="translate(0 0)"></path></g></svg>